<?xml version="1.0" encoding="UTF-8" standalone="no"?>
<!-- Created with Inkscape (http://www.inkscape.org/) -->

<svg
   width="64pt"
   height="64pt"
   viewBox="0 0 22.577778 22.577778"
   version="1.1"
   id="svg831"
   inkscape:version="1.1.2 (0a00cf5339, 2022-02-04)"
   sodipodi:docname="08 - Virtual Reality.svg"
   inkscape:export-filename="/media/taufikramadhan/Data/Tr Design Studio/Project Design/TR Creative Design/Icon Design/Project Hiring/Icon Icons/026 - Science And Technology/Team/6/Done/Filedline/Svg/08 - Virtual Reality.png"
   inkscape:export-xdpi="576"
   inkscape:export-ydpi="576"
   xmlns:inkscape="http://www.inkscape.org/namespaces/inkscape"
   xmlns:sodipodi="http://sodipodi.sourceforge.net/DTD/sodipodi-0.dtd"
   xmlns="http://www.w3.org/2000/svg"
   xmlns:svg="http://www.w3.org/2000/svg"
   xmlns:rdf="http://www.w3.org/1999/02/22-rdf-syntax-ns#"
   xmlns:cc="http://creativecommons.org/ns#"
   xmlns:dc="http://purl.org/dc/elements/1.1/">
  <defs
     id="defs825">
    <pattern
       id="EMFhbasepattern"
       patternUnits="userSpaceOnUse"
       width="6"
       height="6"
       x="0"
       y="0" />
    <pattern
       id="EMFhbasepattern-9"
       patternUnits="userSpaceOnUse"
       width="6"
       height="6"
       x="0"
       y="0" />
    <pattern
       id="EMFhbasepattern-0"
       patternUnits="userSpaceOnUse"
       width="6"
       height="6"
       x="0"
       y="0" />
    <pattern
       id="EMFhbasepattern-7"
       patternUnits="userSpaceOnUse"
       width="6"
       height="6"
       x="0"
       y="0" />
    <pattern
       id="EMFhbasepattern-2"
       patternUnits="userSpaceOnUse"
       width="6"
       height="6"
       x="0"
       y="0" />
    <pattern
       id="EMFhbasepattern-98"
       patternUnits="userSpaceOnUse"
       width="6"
       height="6"
       x="0"
       y="0" />
    <pattern
       id="EMFhbasepattern-6"
       patternUnits="userSpaceOnUse"
       width="6"
       height="6"
       x="0"
       y="0" />
    <pattern
       id="EMFhbasepattern-01"
       patternUnits="userSpaceOnUse"
       width="6"
       height="6"
       x="0"
       y="0" />
    <pattern
       id="EMFhbasepattern-07"
       patternUnits="userSpaceOnUse"
       width="6"
       height="6"
       x="0"
       y="0" />
    <pattern
       id="EMFhbasepattern-8"
       patternUnits="userSpaceOnUse"
       width="6"
       height="6"
       x="0"
       y="0" />
    <pattern
       id="EMFhbasepattern-4"
       patternUnits="userSpaceOnUse"
       width="6"
       height="6"
       x="0"
       y="0" />
    <pattern
       id="EMFhbasepattern-40"
       patternUnits="userSpaceOnUse"
       width="6"
       height="6"
       x="0"
       y="0" />
    <pattern
       id="EMFhbasepattern-08"
       patternUnits="userSpaceOnUse"
       width="6"
       height="6"
       x="0"
       y="0" />
    <pattern
       id="EMFhbasepattern-04"
       patternUnits="userSpaceOnUse"
       width="6"
       height="6"
       x="0"
       y="0" />
    <pattern
       id="EMFhbasepattern-014"
       patternUnits="userSpaceOnUse"
       width="6"
       height="6"
       x="0"
       y="0" />
    <pattern
       id="EMFhbasepattern-27"
       patternUnits="userSpaceOnUse"
       width="6"
       height="6"
       x="0"
       y="0" />
    <pattern
       id="EMFhbasepattern-09"
       patternUnits="userSpaceOnUse"
       width="6"
       height="6"
       x="0"
       y="0" />
    <pattern
       id="EMFhbasepattern-5"
       patternUnits="userSpaceOnUse"
       width="6"
       height="6"
       x="0"
       y="0" />
    <pattern
       id="EMFhbasepattern-018"
       patternUnits="userSpaceOnUse"
       width="6"
       height="6"
       x="0"
       y="0" />
  </defs>
  <sodipodi:namedview
     id="base"
     pagecolor="#ffffff"
     bordercolor="#666666"
     borderopacity="1.0"
     inkscape:pageopacity="0.0"
     inkscape:pageshadow="2"
     inkscape:zoom="8.2366891"
     inkscape:cx="27.802433"
     inkscape:cy="19.607393"
     inkscape:document-units="pt"
     inkscape:current-layer="layer1"
     showgrid="false"
     units="pt"
     inkscape:window-width="1366"
     inkscape:window-height="719"
     inkscape:window-x="0"
     inkscape:window-y="26"
     inkscape:window-maximized="1"
     inkscape:pagecheckerboard="true"
     inkscape:showpageshadow="false"
     inkscape:object-paths="true"
     inkscape:snap-intersection-paths="true"
     inkscape:snap-smooth-nodes="true"
     inkscape:snap-midpoints="true"
     showguides="true"
     inkscape:snap-bbox="true"
     inkscape:bbox-nodes="true"
     inkscape:snap-nodes="false"
     inkscape:snap-global="true"
     inkscape:snap-others="false">
    <inkscape:grid
       type="xygrid"
       id="grid1378" />
    <sodipodi:guide
       position="0.97013831,21.607643"
       orientation="78.000048,0"
       id="guide1380"
       inkscape:locked="false" />
    <sodipodi:guide
       position="0.97013831,0.97013129"
       orientation="0,78.000005"
       id="guide1382"
       inkscape:locked="false" />
    <sodipodi:guide
       position="21.607639,0.97013129"
       orientation="-78.000048,0"
       id="guide1384"
       inkscape:locked="false" />
    <sodipodi:guide
       position="21.607639,21.607643"
       orientation="0,-78.000005"
       id="guide1386"
       inkscape:locked="false" />
  </sodipodi:namedview>
  <metadata
     id="metadata828">
    <rdf:RDF>
      <cc:Work
         rdf:about="">
        <dc:format>image/svg+xml</dc:format>
        <dc:type
           rdf:resource="http://purl.org/dc/dcmitype/StillImage" />
      </cc:Work>
    </rdf:RDF>
  </metadata>
  <g
     inkscape:label="Icon"
     inkscape:groupmode="layer"
     id="layer1"
     transform="translate(0,-274.42223)">
    <g
       id="g3129"
       style="display:inline;stroke-width:0.794001"
       transform="matrix(1.2594445,0,0,1.2594445,0.62640858,-77.680848)">
      <g
         id="g5528"
         style="display:inline;stroke-width:0.794001">
        <path
           style="color:#000000;fill:#4895ef;fill-opacity:1;stroke-width:0.794001;stroke-linecap:round;stroke-linejoin:round;-inkscape-stroke:none"
           d="m 12.169734,288.26924 v 2.40812 c 7.66e-4,0.12659 0.09109,0.2349 0.222986,0.26039 0.987396,0.15894 1.816453,0.42509 2.38151,0.74408 l 1.364262,-1.43159 c 0,-0.38921 -0.204834,-0.74135 -0.521415,-1.03094 -0.316582,-0.28959 -0.749448,-0.53164 -1.273308,-0.73432 -0.528934,-0.20465 -1.187543,-0.36396 -1.866019,-0.47491 -0.201356,-0.0147 -0.24446,0.10586 -0.308016,0.25917 z"
           id="path80048"
           sodipodi:nodetypes="cccccsccc" />
        <path
           style="color:#000000;fill:#fda35d;stroke-width:0.794001;stroke-linecap:round;stroke-linejoin:round;-inkscape-stroke:none"
           d="m 5.953125,289.80469 a 0.26460996,0.26460996 0 0 0 -0.2636719,0.26367 v 3.21875 a 0.26460996,0.26460996 0 0 0 0.2636719,0.26367 h 2.3808594 a 0.26460996,0.26460996 0 0 0 0.265625,-0.26367 v -3.21875 a 0.26460996,0.26460996 0 0 0 -0.265625,-0.26367 z"
           id="path1874828" />
        <path
           style="color:#000000;fill:#4f697d;fill-opacity:1;stroke-width:0.794001;stroke-linecap:round;stroke-linejoin:round;-inkscape-stroke:none"
           d="m 6.0859375,282.70312 c -0.435245,0 -0.7949249,0.35968 -0.7949219,0.79493 v 1.05664 a 0.26460996,0.26460996 0 0 0 0.265625,0.26562 h 3.1738282 a 0.26460996,0.26460996 0 0 0 0.265625,-0.26562 v -1.05664 c 2.9e-6,-0.43525 -0.3596771,-0.79492 -0.7949219,-0.79493 z"
           id="path87836" />
        <path
           style="color:#000000;fill:#4f697d;fill-opacity:1;stroke-width:0.794001;stroke-linecap:round;stroke-linejoin:round;-inkscape-stroke:none"
           d="m 11.077876,285.18573 0.04237,-1.94155 c 0.0085,-0.84817 -0.254323,-1.6254 -0.805634,-2.14089 -0.5190793,-0.48534 -1.2461628,-0.69748 -1.988509,-0.50746 -0.6007063,-0.1817 -1.1166139,-0.25511 -1.565796,-0.25322 -0.7780653,-0.004 -1.4408995,0.26968 -2.0179647,0.57361 -0.8176446,0.43292 -1.4312197,0.84634 -2.7980201,0.48007 -0.15169,-0.0406 -0.2221278,0.006 -0.2780186,0.0623 -0.068331,0.0683 -0.1122243,0.19578 -0.035659,0.3284 0.3503766,0.5262 0.8516466,0.98173 1.430662,1.23662 -0.4255402,0.0765 -0.8748442,0.0851 -1.400948,-0.045 -0.2784394,-0.0746 -0.3683855,0.17429 -0.3245279,0.33797 0.3067884,0.92036 1.1766788,1.20914 1.7228922,1.47639 z"
           id="path96327"
           sodipodi:nodetypes="cccccccccccccc" />
        <path
           id="path94241"
           style="color:#000000;fill:#3a4d5c;fill-opacity:1;stroke-width:0.794001;stroke-linecap:round;stroke-linejoin:round;-inkscape-stroke:none"
           d="m 8.326107,280.59583 c -0.015435,-0.005 -0.030152,-0.008 -0.045475,-0.0129 -0.4554133,0.1284 -0.9155195,0.41346 -1.335319,0.88573 -0.097869,0.10979 -0.087423,0.27831 0.023254,0.37517 0.1094991,0.0965 0.2764306,0.0861 0.3731038,-0.0233 0.8063926,-0.90719 1.5943377,-0.95166 2.2303547,-0.60772 0.6355355,0.34368 1.1099205,1.14034 1.1017415,2.01848 l -0.134875,2.18023 0.254248,0.0202 c 0.146828,0.0115 0.27482,-0.099 0.284737,-0.24598 0.06296,-0.74751 0.112138,-1.53585 0.112138,-2.26136 0,-1.13111 -1.011335,-2.39778 -2.3130372,-2.39778 -0.180667,-7.5e-4 -0.365284,0.0217 -0.5508707,0.0692 z"
           sodipodi:nodetypes="cccccsccccccc" />
        <path
           style="color:#000000;fill:#9ebed1;fill-opacity:1;stroke-width:0.794001;stroke-linecap:round;stroke-linejoin:round;-inkscape-stroke:none"
           d="m 11.642578,284.82031 a 0.26460996,0.26460996 0 0 0 -0.265625,0.26367 v 2.11719 a 0.26460996,0.26460996 0 0 0 0.265625,0.26563 h 0.263672 c 0.727491,0 1.322266,-0.59673 1.322266,-1.32422 0,-0.7275 -0.594775,-1.32227 -1.322266,-1.32227 z"
           id="path27408-1" />
        <path
           id="path2173323"
           style="color:#000000;fill:#82abc4;fill-opacity:1;stroke-width:0.794001;stroke-linecap:round;stroke-linejoin:round;-inkscape-stroke:none"
           d="m 11.6427,284.82038 a 0.26460996,0.26460996 0 0 0 -0.265616,0.26355 v 0.26561 c 0.727491,0 1.3224,0.5949 1.3224,1.3224 0,0.22883 -0.05895,0.44459 -0.162264,0.63304 0.410993,-0.22545 0.69143,-0.66288 0.69143,-1.1622 0,-0.72751 -0.594909,-1.3224 -1.3224,-1.3224 z" />
        <path
           style="color:#000000;fill:#9ebed1;fill-opacity:1;stroke-width:0.794001;stroke-linecap:round;stroke-linejoin:round;-inkscape-stroke:none"
           d="m 2.3808594,284.82031 c -0.7274921,0 -1.3222657,0.59477 -1.3222657,1.32227 10e-8,0.72749 0.5947736,1.32422 1.3222657,1.32422 h 0.265625 a 0.26460996,0.26460996 0 0 0 0.2636719,-0.26563 v -2.11719 a 0.26460996,0.26460996 0 0 0 -0.2636719,-0.26367 z"
           id="path26519-9" />
        <path
           id="path2176769"
           style="color:#000000;fill:#82abc4;fill-opacity:1;stroke-width:0.794001;stroke-linecap:round;stroke-linejoin:round;-inkscape-stroke:none"
           d="m 2.3807333,284.82038 c -0.4993358,0 -0.9362981,0.2799 -1.1611695,0.69091 0.1880394,-0.1031 0.4034283,-0.16175 0.6320028,-0.16175 h 0.2656169 a 0.26460996,0.26460996 0 0 1 0.2635498,0.26355 v 1.85364 H 2.6463501 A 0.26460996,0.26460996 0 0 0 2.9099,287.20111 v -2.11718 a 0.26460996,0.26460996 0 0 0 -0.2635499,-0.26355 z" />
        <path
           style="color:#000000;fill:#e2f0fa;fill-opacity:1;stroke-width:0.794001;stroke-linecap:round;stroke-linejoin:round;-inkscape-stroke:none"
           d="m 10.583984,284.29102 a 0.26460996,0.26460996 0 0 0 -0.265625,0.26367 v 3.17578 a 0.26460996,0.26460996 0 0 0 0.265625,0.26367 h 0.529297 c 0.435245,0 0.792969,-0.35773 0.792969,-0.79297 v -2.11719 c 0,-0.43524 -0.357724,-0.79296 -0.792969,-0.79296 z"
           id="path61161" />
        <path
           id="path2165900"
           style="color:#000000;fill:#c8dae5;fill-opacity:1;stroke-width:0.794001;stroke-linecap:round;stroke-linejoin:round;-inkscape-stroke:none"
           d="m 10.58385,284.29121 a 0.26460996,0.26460996 0 0 0 -0.265616,0.26355 v 0.26562 h 0.266133 c 0.435245,0 0.792717,0.35747 0.792717,0.79271 v 2.11719 c 0,0.0797 -0.01183,0.15665 -0.03411,0.22944 0.324624,-0.0994 0.563273,-0.40311 0.563273,-0.75861 v -2.11718 c 0,-0.43525 -0.357471,-0.79272 -0.792716,-0.79272 z" />
        <path
           style="color:#000000;fill:#f7c3a1;stroke-width:0.794001;stroke-linecap:round;stroke-linejoin:round;-inkscape-stroke:none"
           d="m 4.4980469,286.9375 a 0.26460996,0.26460996 0 0 0 -0.265625,0.26367 v 1.85156 c 0,0.62856 0.3937713,1.20765 0.9003906,1.64258 0.5066193,0.43494 1.1403462,0.74024 1.7460937,0.74024 h 0.5292969 c 0.6057475,0 1.2394745,-0.3053 1.7460938,-0.74024 0.5066193,-0.43493 0.9003911,-1.01402 0.9003911,-1.64258 v -1.85156 A 0.26460996,0.26460996 0 0 0 9.7890625,286.9375 Z"
           id="path1874636" />
        <path
           id="path2181627"
           style="color:#000000;fill:#f2a069;fill-opacity:1;stroke-width:0.794001;stroke-linecap:round;stroke-linejoin:round;-inkscape-stroke:none"
           d="M 4.4979168,286.93756 C 4.3517969,286.937 4.2328842,287.05499 4.2323,287.20111 v 1.85157 h 1.8536336 c 0.2815627,0 0.4869518,-0.15897 0.6035807,-0.38086 0.10418,-0.22507 0.2614771,-0.41238 0.4552693,-0.41238 0.2356705,0 0.3335777,0.22642 0.4511353,0.41031 0.116727,0.2218 0.3230134,0.38293 0.6051312,0.38293 h 1.8536339 v -1.85157 c -5.82e-4,-0.14612 -0.1194973,-0.26411 -0.2656172,-0.26355 z"
           sodipodi:nodetypes="cccscccscccc" />
        <path
           style="color:#000000;fill:#e2f0fa;fill-opacity:1;stroke-width:0.794001;stroke-linecap:round;stroke-linejoin:round;-inkscape-stroke:none"
           d="m 3.1757813,284.29102 c -0.4352437,0 -0.794922,0.35772 -0.7949219,0.79296 v 2.11719 c -10e-8,0.43525 0.3596782,0.79297 0.7949219,0.79297 H 3.7050781 A 0.26460996,0.26460996 0 0 0 3.96875,287.73047 v -3.17578 a 0.26460996,0.26460996 0 0 0 -0.2636719,-0.26367 z"
           id="rect25869-6" />
        <path
           id="path2175241"
           style="color:#000000;fill:#c8dae5;fill-opacity:1;stroke-width:0.794001;stroke-linecap:round;stroke-linejoin:round;-inkscape-stroke:none"
           d="m 3.1760335,284.29121 c -0.3557029,0 -0.660994,0.23889 -0.760677,0.56379 0.073375,-0.0226 0.1512058,-0.0346 0.2315104,-0.0346 h 0.5291666 a 0.26460996,0.26460996 0 0 1 0.2635499,0.26355 v 2.91041 h 0.2656168 a 0.26460996,0.26460996 0 0 0 0.2635499,-0.26406 v -3.17552 a 0.26460996,0.26460996 0 0 0 -0.2635499,-0.26355 z" />
        <path
           style="color:#000000;fill:#a7e3fa;fill-opacity:1;stroke-width:0.794001;stroke-linecap:round;stroke-linejoin:round;-inkscape-stroke:none"
           d="m 3.96875,283.76172 c -0.2891068,0 -0.5292969,0.24019 -0.5292969,0.5293 v 3.70312 c 0,0.28911 0.2401901,0.5293 0.5292969,0.5293 h 2.0394046 c 0.2815626,0 0.4868867,-0.15897 0.6035156,-0.38086 0.052931,-0.10071 0.13021,-0.21822 0.2128906,-0.29688 0.082681,-0.0787 0.2360679,-0.11523 0.3199704,-0.11523 0.083791,0 0.2219782,0.0368 0.304558,0.11523 0.08258,0.0785 0.1579625,0.19427 0.2109375,0.29492 0.116727,0.2218 0.323351,0.38282 0.6054688,0.38282 h 2.0528635 c 0.289107,0 0.529293,-0.24019 0.529297,-0.5293 v -3.70312 c -4e-6,-0.28911 -0.24019,-0.5293 -0.529297,-0.5293 z"
           id="path27404-5"
           sodipodi:nodetypes="sssssccsccssccss" />
        <path
           style="color:#000000;fill:#e2f0fa;fill-opacity:1;stroke-width:0.794001;stroke-linecap:round;stroke-linejoin:round;-inkscape-stroke:none"
           d="m 8.4375,291.98437 c -0.089263,-0.0375 -0.1918914,-0.0233 -0.2675781,0.0371 l -1.0253907,0.82032 -1.0253906,-0.82032 c -0.076119,-0.0611 -0.1797234,-0.0754 -0.2695312,-0.0371 l -3.6347656,1.54297 c -0.5400815,0.22913 -0.8925782,0.76098 -0.8925782,1.34766 v 1.58594 c -5.619e-4,0.14693 0.118693,0.26618 0.265625,0.26562 H 12.699219 c 0.146932,5.6e-4 0.266187,-0.11869 0.265625,-0.26562 v -1.1211 c -3.5e-5,-0.0723 -0.02968,-0.14149 -0.08203,-0.1914 l -2.4209,-2.3037 z"
           id="path9993"
           sodipodi:nodetypes="ccccccscccccccc" />
        <path
           id="path586575"
           style="fill:#c8dae5;fill-opacity:1;stroke-width:0.794001;stroke-linecap:round;stroke-linejoin:round;stroke-miterlimit:10"
           d="m 9.4841758,292.42921 v 3.11196 c 0,0.21806 0.092694,0.46588 0.2656168,0.6227 0.1729235,0.15683 0.3853044,0.21291 0.5684414,0.21291 0.945224,0 1.839731,-0.0809 2.646866,-0.2341 v -0.80305 c -3.5e-5,-0.0723 -0.02981,-0.14129 -0.08216,-0.1912 l -2.421041,-2.30374 z" />
        <path
           id="path2187596"
           style="color:#000000;fill:#c8dae5;fill-opacity:1;stroke-width:0.794001;stroke-linecap:round;stroke-linejoin:round;-inkscape-stroke:none"
           d="m 5.9541586,291.96309 c -0.035381,-1.2e-4 -0.070708,0.007 -0.1043863,0.0212 l -3.6349203,1.54306 c -0.5400816,0.22913 -0.8924521,0.76104 -0.8924521,1.34772 v 0.52917 c 0,-0.58668 0.3523705,-1.1186 0.8924521,-1.34773 l 3.6349203,-1.54305 c 0.089808,-0.0383 0.1931151,-0.0239 0.2692342,0.0372 l 1.0257771,0.82011 1.0252605,-0.82011 c 0.075687,-0.0604 0.178421,-0.0747 0.267684,-0.0372 l 2.0241659,0.86041 2.421041,2.30373 c 0.05235,0.0499 0.08213,0.11891 0.08216,0.19121 v -0.52917 c -3.5e-5,-0.0723 -0.02981,-0.14129 -0.08216,-0.1912 l -2.421041,-2.30374 -2.0241659,-0.86041 c -0.089263,-0.0375 -0.1919973,-0.0232 -0.267684,0.0372 l -1.0252605,0.8201 -1.0257771,-0.8201 c -0.047575,-0.0382 -0.1058791,-0.0582 -0.1648479,-0.0584 z" />
        <path
           style="color:#000000;fill:#7cb3f4;fill-opacity:1;stroke-width:0.794001;stroke-linecap:round;stroke-linejoin:round;stroke-miterlimit:10;-inkscape-stroke:none"
           d="m 15.875,289.9844 c -0.146125,5.8e-4 -0.264121,0.11949 -0.263549,0.26562 0,0.70756 -0.891349,1.05021 -1.459343,1.27331 -0.963244,0.37268 -2.327222,0.61133 -3.833874,0.61133 -0.175874,0 -0.26355,0.11097 -0.26355,0.26355 v 3.14296 c 0,0.18189 0.121415,0.26562 0.26355,0.26562 1.561027,0 2.975909,-0.23426 4.023527,-0.63097 0.523809,-0.19835 0.956228,-0.4364 1.273307,-0.72295 0.326412,-0.32641 0.523482,-0.63503 0.523482,-1.02889 -9.6e-5,-1.04779 0,-2.13921 0,-3.17396 5.72e-4,-0.14613 -0.117424,-0.26505 -0.26355,-0.26562 z"
           id="ellipse11704"
           sodipodi:nodetypes="cccccccccccc" />
        <path
           id="path19066"
           style="color:#000000;fill:#9ebed1;fill-opacity:1;stroke-width:0.794001;stroke-linecap:round;stroke-linejoin:round;stroke-miterlimit:10;-inkscape-stroke:none"
           d="m 6.8786501,292.62868 v 4.09795 h 0.5296834 v -4.09588 l -0.2635499,0.21084 z" />
        <path
           id="path9981"
           style="color:#000000;fill:#c8dae5;fill-opacity:1;stroke-width:0.794001;stroke-linecap:round;stroke-linejoin:round;-inkscape-stroke:none"
           d="m 8.1700441,292.02149 c -0.3972632,0.31758 -0.7941451,0.63564 -1.1916585,0.95291 -0.1077087,0.0866 -0.1306693,0.24144 -0.05271,0.35553 l 0.7932333,1.16427 c 0.1018042,0.14762 0.3178553,0.15337 0.427364,0.0114 l 1.535307,-1.99833 -1.2438518,-0.52296 c -0.09721,-0.0499 -0.193144,-0.0229 -0.267684,0.0372 z"
           sodipodi:nodetypes="cccccccc" />
        <path
           id="path9987"
           style="color:#000000;fill:#c8dae5;fill-opacity:1;stroke-width:0.794001;stroke-linecap:round;stroke-linejoin:round;-inkscape-stroke:none"
           d="m 4.6090211,292.51086 1.5316894,1.99523 c 0.1096645,0.14235 0.3262881,0.13633 0.427881,-0.0119 l 0.7927166,-1.16427 c 0.077959,-0.11409 0.054999,-0.26896 -0.05271,-0.35553 l -1.1921752,-0.95446 c -0.096608,-0.0819 -0.1829681,-0.073 -0.2666505,-0.0357 z"
           sodipodi:nodetypes="cccccccc" />
        <path
           id="path2189631"
           style="color:#000000;fill:#9ebed1;fill-opacity:1;stroke-width:0.794001;stroke-linecap:round;stroke-linejoin:round;-inkscape-stroke:none"
           d="m 5.8497723,291.98428 -1.2407512,0.52658 0.3064413,0.39946 0.9343099,-0.39687 c 0.089808,-0.0383 0.1931151,-0.0239 0.2692342,0.0372 l 1.0257771,0.82011 0.261483,-0.20929 c -0.00523,-0.0709 -0.038374,-0.13941 -0.097669,-0.18707 l -1.1934671,-0.9555 c -0.094387,-0.08 -0.1829139,-0.0768 -0.2653586,-0.0346 z"
           sodipodi:nodetypes="cccccccccc" />
        <path
           id="path35011-7"
           style="color:#000000;fill:#9ebed1;fill-opacity:1;stroke-width:0.794001;stroke-linecap:round;stroke-linejoin:round;-inkscape-stroke:none"
           d="m 3.4395834,295.13861 a 0.2645835,0.2645835 0 0 0 -0.2635499,0.26562 v 1.3224 h 0.5291667 v -1.3224 a 0.2645835,0.2645835 0 0 0 -0.2656168,-0.26562 z" />
        <path
           style="color:#000000;fill:#e2f0fa;fill-opacity:1;stroke-width:0.794001;stroke-linecap:round;stroke-linejoin:round;-inkscape-stroke:none"
           d="m 11.376953,293.16016 a 0.2645835,0.2645835 0 0 0 -0.263672,0.26367 0.2645835,0.2645835 0 0 0 0.263672,0.26562 h 0.792969 a 0.2645835,0.2645835 0 0 0 0.265625,-0.26562 0.2645835,0.2645835 0 0 0 -0.265625,-0.26367 z"
           id="path4472-2" />
        <path
           style="color:#000000;fill:#e2f0fa;fill-opacity:1;stroke-width:0.794001;stroke-linecap:round;stroke-linejoin:round;-inkscape-stroke:none"
           d="m 11.376953,294.21875 a 0.2645835,0.2645835 0 0 0 -0.263672,0.26367 0.2645835,0.2645835 0 0 0 0.263672,0.26563 h 1.322266 a 0.2645835,0.2645835 0 0 0 0.265625,-0.26563 0.2645835,0.2645835 0 0 0 -0.265625,-0.26367 z"
           id="path4554-5" />
        <path
           id="path21469-3"
           style="color:#000000;fill:#4f697d;fill-opacity:1;stroke-width:0.794001;stroke-linecap:round;stroke-linejoin:round;-inkscape-stroke:none"
           d="m 4.7614667,284.82038 a 0.2645835,0.2645835 0 0 0 -0.2635499,0.26355 0.2645835,0.2645835 0 0 0 0.2635499,0.26561 h 0.7953002 a 0.2645835,0.2645835 0 0 0 0.2635498,-0.26561 0.2645835,0.2645835 0 0 0 -0.2635498,-0.26355 z m 1.8536335,0 a 0.2645835,0.2645835 0 0 0 -0.2656168,0.26355 0.2645835,0.2645835 0 0 0 0.2656168,0.26561 h 1.8515667 a 0.2645835,0.2645835 0 0 0 0.2635499,-0.26561 0.2645835,0.2645835 0 0 0 -0.2635499,-0.26355 z m -1.8536335,1.05833 a 0.2645835,0.2645835 0 0 0 -0.2635499,0.26407 0.2645835,0.2645835 0 0 0 0.2635499,0.26561 h 2.6468668 a 0.2645835,0.2645835 0 0 0 0.2656168,-0.26561 0.2645835,0.2645835 0 0 0 -0.2656168,-0.26407 z m 3.7052002,0 a 0.2645835,0.2645835 0 0 0 -0.2656168,0.26407 0.2645835,0.2645835 0 0 0 0.2656168,0.26561 H 9.525517 a 0.2645835,0.2645835 0 0 0 0.2635498,-0.26561 0.2645835,0.2645835 0 0 0 -0.2635498,-0.26407 z m -3.7052002,1.05885 a 0.2645835,0.2645835 0 0 0 -0.2635499,0.26355 0.2645835,0.2645835 0 0 0 0.2635499,0.26562 h 1.05885 a 0.2645835,0.2645835 0 0 0 0.2656169,-0.26562 0.2645835,0.2645835 0 0 0 -0.2656169,-0.26355 z m 3.7052002,0 a 0.2645835,0.2645835 0 0 0 -0.2656168,0.26355 0.2645835,0.2645835 0 0 0 0.2656168,0.26562 H 9.525517 a 0.2645835,0.2645835 0 0 0 0.2635498,-0.26562 0.2645835,0.2645835 0 0 0 -0.2635498,-0.26355 z" />
        <path
           style="color:#000000;display:inline;fill:#f0517a;fill-opacity:1;stroke-width:0.794001;stroke-linecap:round;stroke-linejoin:round;-inkscape-stroke:none"
           d="m 9.5259005,284.82095 a 0.2645835,0.2645835 0 0 0 -0.263672,0.26367 0.2645835,0.2645835 0 0 0 0.263672,0.26367 0.2645835,0.2645835 0 0 0 0.263672,-0.26367 0.2645835,0.2645835 0 0 0 -0.263672,-0.26367 z"
           id="path22821-4" />
        <path
           style="color:#000000;fill:#e2f0fa;fill-opacity:1;stroke-width:0.794001;stroke-linecap:round;stroke-linejoin:round;stroke-miterlimit:10;-inkscape-stroke:none"
           d="m 14.796875,292.53317 c -0.465125,0.25236 -0.966392,0.42194 -1.4375,0.54297 -0.142012,0.0359 -0.227815,0.18038 -0.191406,0.32227 0.03679,0.14122 0.180979,0.22598 0.322265,0.18945 0.55802,-0.14587 1.09208,-0.32875 1.566407,-0.59375 0.126327,-0.0721 0.170816,-0.23256 0.09961,-0.35937 -0.06934,-0.1201 -0.217856,-0.18328 -0.359376,-0.10157 z"
           id="path17447"
           sodipodi:nodetypes="ccccccc" />
        <path
           style="color:#000000;fill:#9ebed1;fill-opacity:1;stroke-width:0.794001;stroke-linecap:round;stroke-linejoin:round;-inkscape-stroke:none"
           d="m 1.0585937,296.19727 a 0.2645835,0.2645835 0 0 0 -0.26562495,0.26367 0.2645835,0.2645835 0 0 0 0.26562495,0.26562 H 13.228516 a 0.2645835,0.2645835 0 0 0 0.265625,-0.26562 0.2645835,0.2645835 0 0 0 -0.265625,-0.26367 z"
           id="path2410-8" />
        <path
           style="color:#000000;fill:#7cb3f4;fill-opacity:1;stroke-width:0.794001;stroke-linecap:round;stroke-linejoin:round;stroke-miterlimit:10;-inkscape-stroke:none"
           d="m 12.477213,288.00781 a 0.2645835,0.2645835 0 0 0 -0.302735,0.21875 0.2645835,0.2645835 0 0 0 0.21875,0.30274 c 0.651505,0.10662 1.283217,0.26289 1.759766,0.44726 0.481623,0.18635 0.861681,0.40607 1.107422,0.63086 0.245741,0.22479 0.349609,0.43815 0.349609,0.64258 0,0.20442 -0.103868,0.41583 -0.349609,0.64062 -0.245741,0.2248 -0.6258,0.44648 -1.107422,0.63282 -0.963244,0.37268 -2.327332,0.61133 -3.833984,0.61133 a 0.2645835,0.2645835 0 0 0 -0.265625,0.26367 0.2645835,0.2645835 0 0 0 0.265625,0.26562 c 1.561976,0 2.975716,-0.24307 4.023437,-0.64844 0.523861,-0.20268 0.958809,-0.44478 1.275391,-0.73437 0.316582,-0.28959 0.521484,-0.64204 0.521484,-1.03125 0,-0.38921 -0.204902,-0.74361 -0.521484,-1.0332 -0.316582,-0.2896 -0.75153,-0.53169 -1.275391,-0.73438 -0.528934,-0.20464 -1.187258,-0.36365 -1.865234,-0.47461 z"
           id="path82163" />
        <path
           id="path2160497"
           style="color:#000000;fill:#3a4d5c;fill-opacity:1;stroke-width:0.794001;stroke-linecap:round;stroke-linejoin:round;-inkscape-stroke:none"
           d="m 6.760311,280.34261 c -0.7780653,-0.004 -1.4408995,0.26968 -2.0179647,0.57361 -0.8176446,0.43292 -1.4309617,0.84634 -2.7977621,0.48007 -0.1516901,-0.0406 -0.2221284,0.007 -0.2780192,0.0625 -0.068331,0.0683 -0.1127388,0.19553 -0.036174,0.32815 0.033381,0.0501 0.069363,0.0991 0.1054199,0.14779 0.048003,-0.0251 0.111194,-0.0353 0.208256,-0.009 1.3668005,0.36627 1.9806343,-0.0471 2.7982789,-0.48007 0.5770652,-0.30393 1.2398994,-0.57761 2.0179647,-0.57361 0.4491821,-0.002 0.9650897,0.0715 1.565796,0.25321 0.7423462,-0.19002 1.4694297,0.0221 1.9885095,0.50747 0.495259,0.46307 0.757348,1.13743 0.799434,1.88464 l 0.0062,-0.27286 c 0.0085,-0.84817 -0.254325,-1.62546 -0.805636,-2.14095 -0.5190795,-0.48534 -1.2461633,-0.69748 -1.9885095,-0.50746 -0.6007063,-0.1817 -1.1166139,-0.25511 -1.565796,-0.25322 z"
           sodipodi:nodetypes="cccscccccccccccc" />
        <path
           id="rect27099"
           style="display:inline;fill:#a7e3fa;fill-opacity:1;stroke:#a7e3fa;stroke-width:0.420159;stroke-linecap:round;stroke-linejoin:round;stroke-opacity:1;stop-color:#000000"
           d="m 5.5562393,284.02629 v -0.52916 c -2e-6,-0.29225 0.2369148,-0.52917 0.529167,-0.52917 h 2.116667 c 0.2922518,0 0.529168,0.23692 0.529166,0.52917 v 0.52916 z"
           sodipodi:nodetypes="ccccccc" />
        <path
           id="path2164372"
           style="color:#000000;fill:#87d1ee;fill-opacity:1;stroke-width:0.794001;stroke-linecap:round;stroke-linejoin:round;-inkscape-stroke:none"
           d="m 3.9687501,283.76153 c -0.2889364,0 -0.5288838,0.24028 -0.5291667,0.52916 h 6.3494834 c 0.2891072,0 0.5291632,0.24058 0.5291672,0.52969 v 3.70313 c 0.289107,0 0.529162,-0.24006 0.529166,-0.52917 v -3.70313 c -4e-6,-0.28911 -0.240059,-0.52968 -0.529166,-0.52968 z"
           sodipodi:nodetypes="scsccccss" />
        <path
           id="path2193187"
           style="color:#000000;fill:#9ebed1;fill-opacity:1;stroke-width:0.794001;stroke-linecap:round;stroke-linejoin:round;-inkscape-stroke:none"
           d="m 8.1700441,292.02149 c -0.3972632,0.31758 -0.7941451,0.63564 -1.1916585,0.95291 -0.058868,0.0473 -0.092072,0.11521 -0.097669,0.18552 l 0.2640666,0.21084 1.0252605,-0.82011 c 0.075687,-0.0604 0.178421,-0.0747 0.267684,-0.0372 l 0.9337932,0.39687 0.3069579,-0.39894 -1.2407511,-0.5271 c -0.1330966,-0.0668 -0.2099305,-0.0134 -0.267684,0.0372 z"
           sodipodi:nodetypes="cccccccccc" />
      </g>
      <path
         id="path40394"
         style="color:#000000;display:inline;fill:#000000;stroke-width:0.794001;stroke-linecap:round;stroke-linejoin:round;-inkscape-stroke:none"
         d="m 9.5720254,281.21284 c 0.6360176,0.34394 1.1106596,1.14164 1.1017416,2.01953 -5.82e-4,0.14553 0.116481,0.2642 0.262,0.26562 0.145928,10e-4 0.265464,-0.11555 0.267167,-0.26149 0.01085,-1.06822 -0.547135,-2.03741 -1.3807942,-2.48822 -0.5452952,-0.26217 -1.0398231,-0.29081 -1.528589,-0.16899 -0.5857886,-0.17466 -1.0881905,-0.24214 -1.5270385,-0.23874 -0.2062822,0.002 -0.3982519,0.0189 -0.5787761,0.048 -0.5776775,0.0932 -1.0342764,0.30993 -1.4453899,0.52762 -0.8176596,0.43293 -1.4317367,0.84635 -2.7982789,0.48008 -0.2593234,-0.0695 -0.4313773,0.18543 -0.3072153,0.40049 0.351566,0.52288 0.8497932,0.97326 1.4244613,1.22629 -0.4217669,0.0755 -0.8669731,0.0845 -1.3929382,-0.0432 -0.2575078,-0.069 -0.3778611,0.16754 -0.3325379,0.33668 0.2260267,0.67809 0.7575967,1.01309 1.2402344,1.24955 -0.06449,0.0741 -0.1156522,0.16033 -0.1493464,0.25425 h -0.045992 c -0.7274981,0 -1.3218832,0.59489 -1.3218832,1.3224 0,0.7275 0.5943851,1.32397 1.3218832,1.32397 h 0.046509 c 0.1106208,0.30621 0.4064905,0.52761 0.7487914,0.52761 h 0.2635499 c 0,0.28911 0.2400599,0.52918 0.5291667,0.52918 H 4.2323 v 0.52916 c 0,0.62855 0.3941008,1.20786 0.9007202,1.6428 0.1735617,0.149 0.3619765,0.28278 0.559139,0.39429 l -0.00259,0.96274 -3.4747143,1.47485 c -0.5400738,0.22914 -0.8924521,0.76104 -0.8924521,1.34773 v 1.3224 H 1.0588501 c -0.14632718,-8.4e-4 -0.26556448,0.11723 -0.26613358,0.26356 -5.768e-4,0.14714 0.1189982,0.26648 0.26613358,0.26562 H 13.22865 c 0.146934,5.8e-4 0.266192,-0.11868 0.265617,-0.26562 -5.82e-4,-0.14614 -0.119491,-0.26412 -0.265617,-0.26356 H 12.9651 v -0.63665 c 0.505691,-0.10095 0.969102,-0.23066 1.376661,-0.38499 0.523809,-0.19835 0.956228,-0.43641 1.273307,-0.72296 0.278521,-0.28166 0.523482,-0.55465 0.523482,-0.89246 v -3.31041 c 0,-0.38921 -0.204834,-0.74342 -0.521415,-1.03301 -0.316582,-0.2896 -0.749447,-0.53215 -1.273307,-0.73484 -0.526254,-0.20361 -1.180845,-0.36197 -1.855184,-0.47285 -0.210313,-0.041 -0.318853,0.0845 -0.318853,0.26048 v 2.40607 c 5.29e-4,0.13155 0.09762,0.24272 0.227893,0.26096 h 5.29e-4 c 6.88e-4,1.8e-4 0.0014,3.4e-4 0.0021,5.3e-4 0.741014,0.11868 1.396782,0.29999 1.916679,0.51936 -1.26403,0.52649 -2.817533,0.67092 -3.998722,0.67798 -0.191391,0 -0.26355,0.11132 -0.26355,0.26356 v 0.26562 l -1.4552087,-0.61133 -0.0031,-0.96378 c 0.1967171,-0.11137 0.3849039,-0.24456 0.5581054,-0.39326 0.5066195,-0.43493 0.9002033,-1.01423 0.9002033,-1.6428 v -0.52917 h 0.26355 c 0.289107,0 0.529163,-0.24005 0.529167,-0.52917 h 0.266133 c 0.342293,0 0.636096,-0.22141 0.746208,-0.52761 h 0.04651 c 0.727491,0 1.3224,-0.59647 1.3224,-1.32396 0,-0.72751 -0.594909,-1.32241 -1.3224,-1.32241 h -0.04599 c -0.109658,-0.30704 -0.403832,-0.52917 -0.746724,-0.52917 H 10.8474 c -4e-6,-0.28911 -0.240059,-0.52968 -0.529166,-0.52968 H 8.9963503 v -0.26358 c 2.9e-6,-0.43525 -0.3600567,-0.79479 -0.7953002,-0.7948 H 6.0859336 c -0.4352441,0 -0.7947864,0.35955 -0.7947835,0.7948 v 0.26354 h -1.3224 c -0.2891068,0 -0.5291667,0.24057 -0.5291667,0.52969 H 3.2349446 c -0.4245001,-0.20383 -0.8588513,-0.3744 -1.1461832,-0.7028 0.8635815,0.0845 1.7469472,-0.17415 2.2277711,-0.36949 0.3542212,-0.14282 0.1376442,-0.53394 -0.1261153,-0.51216 -0.5817232,0.0465 -1.184153,-0.2324 -1.6546546,-0.66659 1.0825193,0.0993 1.7925729,-0.30784 2.4525636,-0.65733 0.6874923,-0.36401 1.3352577,-0.68444 2.552299,-0.44649 -0.2039763,0.14045 -0.403877,0.31691 -0.5953125,0.53228 -0.097869,0.10978 -0.087423,0.27831 0.023254,0.37517 0.1094991,0.0965 0.2764306,0.0862 0.3731038,-0.0233 0.3251012,-0.36574 0.6471841,-0.59165 1.0151835,-0.7271 0.4745154,-0.14085 0.8673494,-0.0687 1.2151712,0.11937 z m -3.4860918,2.01953 h 2.1151165 c 0.1492594,0 0.2656178,0.11636 0.2656168,0.26562 v 0.26355 H 5.8203167 v -0.26355 c -1e-6,-0.14926 0.1163572,-0.26562 0.2656169,-0.26562 z m -2.1171835,1.05886 h 6.3494839 v 0.26355 3.17554 0.26406 H 8.2010501 c -0.3172108,0 -0.4416346,-0.79323 -1.0562665,-0.79323 -0.6146318,0 -0.8028344,0.79323 -1.05885,0.79323 H 3.9687501 v -0.26406 -3.17554 z m -0.7927166,0.52917 h 0.2635499 v 2.64636 H 3.1760335 c -0.1492607,0 -0.2661338,-0.11635 -0.2661335,-0.26561 v -2.11719 c -3e-7,-0.14927 0.1168728,-0.26356 0.2661335,-0.26356 z m 1.5854332,0 c -0.1453193,5.5e-4 -0.2629834,0.11824 -0.2635499,0.26356 -5.821e-4,0.14611 0.1174242,0.26504 0.2635499,0.2656 h 0.7953002 c 0.1461256,-5.8e-4 0.2641216,-0.11949 0.2635498,-0.2656 -5.556e-4,-0.14532 -0.1182306,-0.263 -0.2635498,-0.26356 z m 1.8536335,0 c -0.1461256,-5.9e-4 -0.2650471,0.11742 -0.2656168,0.26356 -5.821e-4,0.14692 0.1186831,0.26619 0.2656168,0.2656 h 1.8515667 c 0.1461257,-5.8e-4 0.2641216,-0.11949 0.2635499,-0.2656 -5.665e-4,-0.14532 -0.1182307,-0.263 -0.2635499,-0.26356 z m 4.2322998,0 h 0.266134 c 0.149259,0 0.26355,0.1143 0.26355,0.26356 v 2.11719 c 0,0.14926 -0.114291,0.26561 -0.26355,0.26561 H 10.8474 Z m -1.3213663,5.2e-4 c -0.1453192,5.7e-4 -0.2629834,0.11824 -0.2635499,0.26355 2.911e-4,0.14554 0.1180299,0.2635 0.2635499,0.26408 0.14552,-5.9e-4 0.2632668,-0.11856 0.2635499,-0.26408 -5.556e-4,-0.14532 -0.1182307,-0.26298 -0.2635499,-0.26356 z m -7.1453004,0.52864 v 1.58803 c -0.4415208,0 -0.7927165,-0.35327 -0.7927165,-0.79478 0,-0.44152 0.3511957,-0.79325 0.7927165,-0.79325 z m 9.5255167,0 c 0.44151,0 0.792717,0.35173 0.792717,0.79325 0,0.44151 -0.351207,0.79478 -0.792717,0.79478 z m -7.1447833,0.52917 c -0.1455201,5.8e-4 -0.2632668,0.11854 -0.2635499,0.26408 -5.821e-4,0.14612 0.1174242,0.26504 0.2635499,0.26561 h 2.6468668 c 0.1469337,5.9e-4 0.2661918,-0.11868 0.2656168,-0.26561 -2.847e-4,-0.14633 -0.1192898,-0.26464 -0.2656168,-0.26408 z m 3.7052002,0 c -0.146327,-5.7e-4 -0.2653321,0.11775 -0.2656168,0.26408 -5.821e-4,0.14693 0.1186831,0.2662 0.2656168,0.26561 H 9.525517 c 0.1461256,-5.8e-4 0.2641216,-0.11949 0.2635498,-0.26561 -2.91e-4,-0.14554 -0.1180298,-0.2635 -0.2635498,-0.26408 z m -3.7052002,1.05886 c -0.1453193,5.6e-4 -0.2629834,0.11824 -0.2635499,0.26356 -5.821e-4,0.14612 0.1174242,0.26505 0.2635499,0.26561 h 1.05885 c 0.1469338,5.9e-4 0.2661918,-0.11869 0.2656169,-0.26561 -5.821e-4,-0.14614 -0.1194912,-0.26412 -0.2656169,-0.26356 z m 3.7052002,0 c -0.1461257,-5.8e-4 -0.2650472,0.11742 -0.2656168,0.26356 -5.821e-4,0.14692 0.1186831,0.26619 0.2656168,0.26561 H 9.525517 c 0.1461256,-5.8e-4 0.2641216,-0.11949 0.2635498,-0.26561 -5.556e-4,-0.14532 -0.1182306,-0.26298 -0.2635498,-0.26356 z m -1.3218833,0.79273 c 0.4811557,0.007 0.4920084,0.79323 1.0562665,0.79323 H 9.525517 v 0.52918 c 0,0.39431 -0.2869163,0.87462 -0.7152019,1.2423 -0.4282855,0.36769 -0.984853,0.61133 -1.4019816,0.61133 H 6.8786501 c -0.4171283,0 -0.9736961,-0.24364 -1.4019816,-0.61133 -0.4282856,-0.36768 -0.7152018,-0.84799 -0.7152018,-1.2423 v -0.52918 h 1.3244669 c 0.560424,0 0.5776944,-0.79915 1.05885,-0.79323 z m 5.5541834,0.85317 c 0.540652,0.10258 1.051755,0.23798 1.453141,0.39326 0.481622,0.18636 0.861685,0.40566 1.107426,0.63045 0.24574,0.2248 0.351917,0.43844 0.351917,0.64287 0,0.488 -0.361625,0.66574 -0.701767,0.90176 -0.585154,-0.30613 -1.341122,-0.54356 -2.210717,-0.69919 z m 2.912484,2.70322 v 2.13734 c 0,0.20442 -0.104608,0.41503 -0.34985,0.63666 -0.245243,0.22163 -0.625753,0.43668 -1.107426,0.61908 -0.906469,0.34326 -2.168427,0.56927 -3.570325,0.59481 v -2.61277 c 1.456652,-0.0259 2.771913,-0.26368 3.759978,-0.64597 0.520752,-0.20148 0.951547,-0.44185 1.267623,-0.72915 z m -9.394776,0.0367 c 0.219569,0.0719 0.4423712,0.11213 0.6619751,0.11213 h 0.5296834 c 0.2194899,0 0.4425164,-0.0398 0.6619751,-0.11163 v 0.77723 l -0.9265584,0.74103 -0.9270752,-0.74259 z m 8.580355,1.20974 c -0.185927,0.10464 -0.402015,0.20388 -0.642855,0.29508 -0.240823,0.0912 -0.507731,0.17489 -0.794783,0.24804 -0.142025,0.036 -0.227747,0.18058 -0.191203,0.32246 0.03694,0.14094 0.180859,0.22548 0.321944,0.18914 0.304135,-0.0774 0.589709,-0.16436 0.851628,-0.26355 0.261901,-0.0992 0.501214,-0.21003 0.714685,-0.33021 0.126243,-0.072 0.170773,-0.23236 0.09974,-0.35916 -0.07487,-0.12967 -0.231117,-0.17572 -0.359151,-0.10182 z m -6.4197634,5.3e-4 0.4671549,0.19637 -0.8934855,1.16479 -0.4511352,-0.66043 z m -2.4659993,5.3e-4 0.8759156,0.70022 -0.4490684,0.65836 -0.8929687,-1.16066 z m 3.4375162,0.40773 0.7059005,0.29662 v 2.30272 c 0,0.18116 0.09579,0.26561 0.26355,0.26561 0.747267,0 1.461173,-0.0539 2.117183,-0.15348 v 0.54415 H 7.4083335 v -2.15905 l 0.3105754,0.4558 c 0.1016248,0.14775 0.3176841,0.15376 0.427364,0.0119 z m -4.407483,0.004 1.19941,1.56063 c 0.1096645,0.14235 0.3262881,0.13634 0.427881,-0.0119 l 0.3100586,-0.45528 v 2.15854 H 3.7052002 v -0.79326 c 5.75e-4,-0.14693 -0.1186831,-0.2662 -0.2656168,-0.26561 -0.1461257,5.7e-4 -0.2641216,0.11948 -0.2635499,0.26561 v 0.79324 H 1.8515666 v -1.32241 c 0,-0.37576 0.2246024,-0.7147 0.5705078,-0.86145 z m 6.4357835,0.21443 c -0.14552,5.5e-4 -0.263267,0.11854 -0.26355,0.26406 -5.82e-4,0.14613 0.117424,0.26505 0.26355,0.26563 H 12.1698 c 0.146934,5.7e-4 0.266192,-0.11868 0.265617,-0.26563 -2.91e-4,-0.14632 -0.11929,-0.26463 -0.265617,-0.26406 z m 0,1.05886 c -0.14532,5.4e-4 -0.262984,0.11822 -0.26355,0.26355 -5.82e-4,0.14611 0.117424,0.26505 0.26355,0.26561 h 1.321883 c 0.147135,8.8e-4 0.26671,-0.11848 0.266133,-0.26561 -5.82e-4,-0.14634 -0.119806,-0.26441 -0.266133,-0.26355 z m -2.3807337,0.92966 c -0.1463273,-8.5e-4 -0.2655644,0.11722 -0.2661335,0.26355 -5.821e-4,0.14713 0.1189982,0.26648 0.2661335,0.26561 h 0.2635499 c 0.1469337,6e-4 0.2661917,-0.11867 0.2656168,-0.26561 -5.821e-4,-0.14613 -0.1194912,-0.26412 -0.2656168,-0.26355 z"
         sodipodi:nodetypes="scccccssccccccccssscscscsccccscccccsccccccccccccccccccccccscscscssscscscscsccsccccccccccccsssccccscccccczcccccsccsccscccccccccccccccsssscccccccccscccccccccccccccccccccccccccsccsccszcscsscscsczcsscccccssccccccscccccccccccccccccccccccccccccccccccccccccscccsccccscccccscccccccccscccc" />
    </g>
  </g>
</svg>
